<svg width="675" height="128" viewBox="0 0 675 128" fill="none" xmlns="http://www.w3.org/2000/svg">
<path d="M84.765 93.1811C83.2702 93.1811 82.1224 92.5404 81.3216 91.2592C80.5208 89.9779 80.4408 88.6166 81.0814 87.1751L103.584 33.4419C104.384 31.5734 105.692 30.6392 107.508 30.6392C109.429 30.6392 110.737 31.5734 111.431 33.4419L134.014 87.3353C134.601 88.8301 134.494 90.1915 133.693 91.4193C132.946 92.5938 131.798 93.1811 130.25 93.1811C129.449 93.1811 128.675 92.9675 127.928 92.5404C127.234 92.06 126.727 91.4193 126.406 90.6185L106.547 41.2897H108.789L88.6088 90.6185C88.2351 91.4727 87.6746 92.1134 86.9272 92.5404C86.2332 92.9675 85.5124 93.1811 84.765 93.1811ZM102.596 79.4074L106.547 72.5206H123.603L126.807 79.4074H102.596Z" fill="#1E1E1E"/>
<path d="M148.766 92C147.751 92 146.871 91.653 146.123 90.959C145.429 90.2116 145.082 89.304 145.082 88.2363V33.2218C145.082 32.1541 145.429 31.2732 146.123 30.5792C146.871 29.8318 147.751 29.4581 148.766 29.4581C149.834 29.4581 150.714 29.8318 151.408 30.5792C152.156 31.2732 152.53 32.1541 152.53 33.2218V84.6327H182.479C183.494 84.6327 184.374 84.9797 185.122 85.6737C185.869 86.3678 186.243 87.2486 186.243 88.3164C186.243 89.3307 185.869 90.2116 185.122 90.959C184.374 91.653 183.494 92 182.479 92H148.766Z" fill="#1E1E1E"/>
<path d="M197.703 92C196.688 92 195.808 91.653 195.06 90.959C194.366 90.2116 194.019 89.304 194.019 88.2363V33.2218C194.019 32.1541 194.366 31.2732 195.06 30.5792C195.808 29.8318 196.688 29.4581 197.703 29.4581C198.771 29.4581 199.651 29.8318 200.345 30.5792C201.093 31.2732 201.467 32.1541 201.467 33.2218V84.6327H231.416C232.431 84.6327 233.311 84.9797 234.059 85.6737C234.806 86.3678 235.18 87.2486 235.18 88.3164C235.18 89.3307 234.806 90.2116 234.059 90.959C233.311 91.653 232.431 92 231.416 92H197.703Z" fill="#1E1E1E"/>
<path d="M267.405 98.177C262.435 98.177 257.989 97.3269 254.066 95.6269C250.208 93.9268 247.135 91.4421 244.846 88.1728C242.623 84.9035 241.479 80.9476 241.414 76.3051H255.439C255.504 78.3321 256.028 80.1629 257.008 81.7976C257.989 83.4323 259.33 84.74 261.03 85.7208C262.795 86.6362 264.887 87.0939 267.307 87.0939C269.399 87.0939 271.197 86.767 272.701 86.1131C274.27 85.3939 275.48 84.4131 276.33 83.1707C277.18 81.9284 277.605 80.4572 277.605 78.7571C277.605 76.7955 277.115 75.1609 276.134 73.8531C275.219 72.5454 273.911 71.4338 272.211 70.5184C270.576 69.603 268.647 68.7857 266.424 68.0664C264.266 67.2818 261.978 66.4644 259.558 65.6144C254.131 63.849 249.979 61.495 247.102 58.5526C244.291 55.6102 242.885 51.7197 242.885 46.8811C242.885 42.7618 243.866 39.2309 245.827 36.2885C247.854 33.3461 250.633 31.0902 254.164 29.521C257.695 27.9517 261.716 27.167 266.228 27.167C270.87 27.167 274.924 27.9844 278.39 29.619C281.921 31.1883 284.7 33.4768 286.727 36.4846C288.819 39.4924 289.898 43.0233 289.963 47.0773H275.84C275.774 45.5734 275.317 44.1676 274.467 42.8598C273.682 41.4867 272.57 40.4078 271.132 39.6232C269.693 38.7732 267.993 38.3482 266.032 38.3482C264.332 38.2828 262.762 38.5443 261.324 39.1328C259.951 39.7213 258.839 40.604 257.989 41.781C257.204 42.8925 256.812 44.2983 256.812 45.9984C256.812 47.6331 257.204 49.0062 257.989 50.1178C258.839 51.2293 259.983 52.2101 261.422 53.0602C262.86 53.8448 264.56 54.5967 266.522 55.316C268.484 55.9699 270.609 56.6564 272.897 57.3757C276.297 58.5526 279.436 59.9585 282.313 61.5931C285.19 63.1624 287.479 65.2221 289.179 67.7722C290.879 70.3222 291.729 73.6897 291.729 77.8744C291.729 81.4707 290.781 84.8054 288.884 87.8786C286.988 90.9517 284.242 93.4364 280.646 95.3326C277.115 97.2289 272.701 98.177 267.405 98.177Z" fill="url(#paint0_radial_713_4069)"/>
<path d="M317.52 97V72.8723L294.373 28.344H309.379L325.563 62.2797H322.914L339 28.344H353.908L330.761 72.8723V97H317.52Z" fill="url(#paint1_radial_713_4069)"/>
<path d="M360.768 97V28.344H374.008L405.59 75.7166V28.344H418.831V97H405.59L374.008 49.7254V97H360.768Z" fill="url(#paint2_radial_713_4069)"/>
<path d="M444.755 97V39.0347H424.648V28.344H477.906V39.0347H457.897V97H444.755Z" fill="url(#paint3_radial_713_4069)"/>
<path d="M531.021 97V28.344H544.262V97H531.021ZM487.768 97V28.344H501.008V97H487.768ZM499.145 67.2818V56.591H533.277V67.2818H499.145Z" fill="url(#paint4_radial_713_4069)"/>
<path d="M554.768 97V28.344H580.366C585.924 28.344 590.501 29.2921 594.098 31.1883C597.694 33.0845 600.375 35.6346 602.14 38.8386C603.906 41.9771 604.788 45.4753 604.788 49.3331C604.788 52.9948 603.938 56.4276 602.238 59.6315C600.538 62.7701 597.857 65.3202 594.196 67.2818C590.599 69.178 585.957 70.1261 580.268 70.1261H568.008V97H554.768ZM590.371 97L576.247 66.7914H590.567L605.475 97H590.371ZM568.008 60.5142H579.582C583.57 60.5142 586.513 59.5334 588.409 57.5718C590.305 55.6102 591.253 53.0275 591.253 49.8235C591.253 46.6196 590.305 44.1022 588.409 42.2714C586.578 40.3751 583.636 39.427 579.582 39.427H568.008V60.5142Z" fill="url(#paint5_radial_713_4069)"/>
<path d="M609.158 97L634.266 28.344H649.272L674.283 97H660.257L641.72 43.4483L623.085 97H609.158ZM636 81.4053L641.72 71.1069H658.688L662.121 81.4053H636Z" fill="url(#paint6_radial_713_4069)"/>
<path d="M30.9907 93.8007C26.6664 93.8007 22.6091 92.9999 18.8186 91.3983C15.0816 89.7434 11.7983 87.4478 8.96888 84.5115C6.1928 81.5753 4.00396 78.1586 2.40238 74.2614C0.800793 70.3642 0 66.1734 0 61.6889C0 57.2579 0.7741 53.1205 2.3223 49.2766C3.92389 45.3795 6.13941 41.9627 8.96888 39.0265C11.7983 36.0903 15.0816 33.7947 18.8186 32.1397C22.5557 30.4847 26.613 29.6572 30.9907 29.6572C34.9946 29.6572 38.5181 30.2178 41.5611 31.3389C44.6042 32.4066 47.6205 34.1684 50.6101 36.6241C51.0372 36.9444 51.3308 37.3181 51.491 37.7452C51.7045 38.1189 51.7846 38.5193 51.7312 38.9464C51.7312 39.3201 51.6511 39.6938 51.491 40.0675C51.4376 40.8683 51.0906 41.509 50.4499 41.9894C49.8627 42.4699 49.142 42.7368 48.2878 42.7902C47.487 42.7902 46.6862 42.4966 45.8854 41.9094C43.8568 40.1476 41.7213 38.813 39.4791 37.9054C37.2369 36.9978 34.4074 36.544 30.9907 36.544C27.7341 36.544 24.6644 37.2114 21.7816 38.546C18.9521 39.8807 16.4429 41.6958 14.2541 43.9914C12.0653 46.287 10.3569 48.9563 9.12904 51.9993C7.90116 55.0424 7.28722 58.2722 7.28722 61.6889C7.28722 65.2124 7.90116 68.4957 9.12904 71.5387C10.3569 74.5283 12.0653 77.1976 14.2541 79.5466C16.4429 81.8422 18.9521 83.6307 21.7816 84.9119C24.6644 86.1932 27.7341 86.8338 30.9907 86.8338C33.8201 86.8338 36.4895 86.3801 38.9986 85.4725C41.5078 84.5115 43.8834 83.1769 46.1257 81.4685C46.9798 80.8279 47.834 80.561 48.6882 80.6677C49.5424 80.7211 50.2631 81.0681 50.8503 81.7088C51.4376 82.296 51.7312 83.1235 51.7312 84.1912C51.7312 84.6717 51.6511 85.1522 51.491 85.6326C51.3308 86.0597 51.0372 86.4601 50.6101 86.8338C47.834 89.2362 44.7643 90.998 41.401 92.1191C38.091 93.2402 34.6209 93.8007 30.9907 93.8007Z" fill="#1E1E1E"/>
<g clip-path="url(#paint7_diamond_713_4069_clip_path)" data-figma-skip-parse="true"><g transform="matrix(0.00574908 0.0533171 -0.00641749 0.0478452 61.0099 34.9799)"><rect x="0" y="0" width="1312.33" height="843.892" fill="url(#paint7_diamond_713_4069)" opacity="1" shape-rendering="crispEdges"/><rect x="0" y="0" width="1312.33" height="843.892" transform="scale(1 -1)" fill="url(#paint7_diamond_713_4069)" opacity="1" shape-rendering="crispEdges"/><rect x="0" y="0" width="1312.33" height="843.892" transform="scale(-1 1)" fill="url(#paint7_diamond_713_4069)" opacity="1" shape-rendering="crispEdges"/><rect x="0" y="0" width="1312.33" height="843.892" transform="scale(-1)" fill="url(#paint7_diamond_713_4069)" opacity="1" shape-rendering="crispEdges"/></g></g><rect x="61.8105" y="37.0001" width="5.91243" height="49.1595" rx="2.95621" data-figma-gradient-fill="{&#34;type&#34;:&#34;GRADIENT_DIAMOND&#34;,&#34;stops&#34;:[{&#34;color&#34;:{&#34;r&#34;:0.59434348344802856,&#34;g&#34;:0.51001608371734619,&#34;b&#34;:0.96998387575149536,&#34;a&#34;:1.0},&#34;position&#34;:0.0},{&#34;color&#34;:{&#34;r&#34;:0.26274511218070984,&#34;g&#34;:0.094117648899555206,&#34;b&#34;:1.0,&#34;a&#34;:1.0},&#34;position&#34;:1.0}],&#34;stopsVar&#34;:[{&#34;color&#34;:{&#34;r&#34;:0.59434348344802856,&#34;g&#34;:0.51001608371734619,&#34;b&#34;:0.96998387575149536,&#34;a&#34;:1.0},&#34;position&#34;:0.0},{&#34;color&#34;:{&#34;r&#34;:0.26274511218070984,&#34;g&#34;:0.094117648899555206,&#34;b&#34;:1.0,&#34;a&#34;:1.0},&#34;position&#34;:1.0}],&#34;transform&#34;:{&#34;m00&#34;:11.498167991638184,&#34;m01&#34;:-12.834982872009277,&#34;m02&#34;:61.678314208984375,&#34;m10&#34;:106.63424682617188,&#34;m11&#34;:95.69042968750,&#34;m12&#34;:-66.182472229003906},&#34;opacity&#34;:1.0,&#34;blendMode&#34;:&#34;NORMAL&#34;,&#34;visible&#34;:true}"/>
<g clip-path="url(#paint8_diamond_713_4069_clip_path)" data-figma-skip-parse="true"><g transform="matrix(0.0057476 0.0352594 -0.00641583 0.0316408 52.1698 44.9909)"><rect x="0" y="0" width="1328.12" height="858.056" fill="url(#paint8_diamond_713_4069)" opacity="1" shape-rendering="crispEdges"/><rect x="0" y="0" width="1328.12" height="858.056" transform="scale(1 -1)" fill="url(#paint8_diamond_713_4069)" opacity="1" shape-rendering="crispEdges"/><rect x="0" y="0" width="1328.12" height="858.056" transform="scale(-1 1)" fill="url(#paint8_diamond_713_4069)" opacity="1" shape-rendering="crispEdges"/><rect x="0" y="0" width="1328.12" height="858.056" transform="scale(-1)" fill="url(#paint8_diamond_713_4069)" opacity="1" shape-rendering="crispEdges"/></g></g><rect x="52.9702" y="46.3269" width="5.9109" height="32.5099" rx="2.95545" data-figma-gradient-fill="{&#34;type&#34;:&#34;GRADIENT_DIAMOND&#34;,&#34;stops&#34;:[{&#34;color&#34;:{&#34;r&#34;:0.59434348344802856,&#34;g&#34;:0.51001608371734619,&#34;b&#34;:0.96998387575149536,&#34;a&#34;:1.0},&#34;position&#34;:0.0},{&#34;color&#34;:{&#34;r&#34;:0.26274511218070984,&#34;g&#34;:0.094117648899555206,&#34;b&#34;:1.0,&#34;a&#34;:1.0},&#34;position&#34;:1.0}],&#34;stopsVar&#34;:[{&#34;color&#34;:{&#34;r&#34;:0.59434348344802856,&#34;g&#34;:0.51001608371734619,&#34;b&#34;:0.96998387575149536,&#34;a&#34;:1.0},&#34;position&#34;:0.0},{&#34;color&#34;:{&#34;r&#34;:0.26274511218070984,&#34;g&#34;:0.094117648899555206,&#34;b&#34;:1.0,&#34;a&#34;:1.0},&#34;position&#34;:1.0}],&#34;transform&#34;:{&#34;m00&#34;:11.495192527770996,&#34;m01&#34;:-12.831661224365234,&#34;m02&#34;:52.838016510009766,&#34;m10&#34;:70.518859863281250,&#34;m11&#34;:63.281543731689453,&#34;m12&#34;:-21.909322738647461},&#34;opacity&#34;:1.0,&#34;blendMode&#34;:&#34;NORMAL&#34;,&#34;visible&#34;:true}"/>
<g clip-path="url(#paint9_diamond_713_4069_clip_path)" data-figma-skip-parse="true"><g transform="matrix(0.0057476 0.0128216 -0.00641583 0.0115057 70.244 56.4437)"><rect x="0" y="0" width="1409.44" height="930.902" fill="url(#paint9_diamond_713_4069)" opacity="1" shape-rendering="crispEdges"/><rect x="0" y="0" width="1409.44" height="930.902" transform="scale(1 -1)" fill="url(#paint9_diamond_713_4069)" opacity="1" shape-rendering="crispEdges"/><rect x="0" y="0" width="1409.44" height="930.902" transform="scale(-1 1)" fill="url(#paint9_diamond_713_4069)" opacity="1" shape-rendering="crispEdges"/><rect x="0" y="0" width="1409.44" height="930.902" transform="scale(-1)" fill="url(#paint9_diamond_713_4069)" opacity="1" shape-rendering="crispEdges"/></g></g><rect x="71.0444" y="56.9296" width="5.9109" height="11.8218" rx="2.95545" data-figma-gradient-fill="{&#34;type&#34;:&#34;GRADIENT_DIAMOND&#34;,&#34;stops&#34;:[{&#34;color&#34;:{&#34;r&#34;:0.59434348344802856,&#34;g&#34;:0.51001608371734619,&#34;b&#34;:0.96998387575149536,&#34;a&#34;:1.0},&#34;position&#34;:0.0},{&#34;color&#34;:{&#34;r&#34;:0.26274511218070984,&#34;g&#34;:0.094117648899555206,&#34;b&#34;:1.0,&#34;a&#34;:1.0},&#34;position&#34;:1.0}],&#34;stopsVar&#34;:[{&#34;color&#34;:{&#34;r&#34;:0.59434348344802856,&#34;g&#34;:0.51001608371734619,&#34;b&#34;:0.96998387575149536,&#34;a&#34;:1.0},&#34;position&#34;:0.0},{&#34;color&#34;:{&#34;r&#34;:0.26274511218070984,&#34;g&#34;:0.094117648899555206,&#34;b&#34;:1.0,&#34;a&#34;:1.0},&#34;position&#34;:1.0}],&#34;transform&#34;:{&#34;m00&#34;:11.495192527770996,&#34;m01&#34;:-12.831661224365234,&#34;m02&#34;:70.91223144531250,&#34;m10&#34;:25.643220901489258,&#34;m11&#34;:23.011468887329102,&#34;m12&#34;:32.116394042968750},&#34;opacity&#34;:1.0,&#34;blendMode&#34;:&#34;NORMAL&#34;,&#34;visible&#34;:true}"/>
<g clip-path="url(#paint10_diamond_713_4069_clip_path)" data-figma-skip-parse="true"><g transform="matrix(0.0126588 -0.00490052 0.0116719 0.00457206 33.6508 67.8714)"><rect x="0" y="0" width="1475.78" height="1004.83" fill="url(#paint10_diamond_713_4069)" opacity="1" shape-rendering="crispEdges"/><rect x="0" y="0" width="1475.78" height="1004.83" transform="scale(1 -1)" fill="url(#paint10_diamond_713_4069)" opacity="1" shape-rendering="crispEdges"/><rect x="0" y="0" width="1475.78" height="1004.83" transform="scale(-1 1)" fill="url(#paint10_diamond_713_4069)" opacity="1" shape-rendering="crispEdges"/><rect x="0" y="0" width="1475.78" height="1004.83" transform="scale(-1)" fill="url(#paint10_diamond_713_4069)" opacity="1" shape-rendering="crispEdges"/></g></g><rect x="34.1147" y="67.2341" width="4.58379" height="11.8218" rx="2.2919" transform="rotate(-91.9937 34.1147 67.2341)" data-figma-gradient-fill="{&#34;type&#34;:&#34;GRADIENT_DIAMOND&#34;,&#34;stops&#34;:[{&#34;color&#34;:{&#34;r&#34;:0.59434348344802856,&#34;g&#34;:0.51001608371734619,&#34;b&#34;:0.96998387575149536,&#34;a&#34;:1.0},&#34;position&#34;:0.0},{&#34;color&#34;:{&#34;r&#34;:0.26274511218070984,&#34;g&#34;:0.094117648899555206,&#34;b&#34;:1.0,&#34;a&#34;:1.0},&#34;position&#34;:1.0}],&#34;stopsVar&#34;:[{&#34;color&#34;:{&#34;r&#34;:0.59434348344802856,&#34;g&#34;:0.51001608371734619,&#34;b&#34;:0.96998387575149536,&#34;a&#34;:1.0},&#34;position&#34;:0.0},{&#34;color&#34;:{&#34;r&#34;:0.26274511218070984,&#34;g&#34;:0.094117648899555206,&#34;b&#34;:1.0,&#34;a&#34;:1.0},&#34;position&#34;:1.0}],&#34;transform&#34;:{&#34;m00&#34;:25.317565917968750,&#34;m01&#34;:23.343725204467773,&#34;m02&#34;:9.3201618194580078,&#34;m10&#34;:-9.8010473251342773,&#34;m11&#34;:9.1441202163696289,&#34;m12&#34;:68.199844360351562},&#34;opacity&#34;:1.0,&#34;blendMode&#34;:&#34;NORMAL&#34;,&#34;visible&#34;:true}"/>
<g clip-path="url(#paint11_diamond_713_4069_clip_path)" data-figma-skip-parse="true"><g transform="matrix(0.0057476 0.0192324 -0.00641583 0.0172586 43.3036 54.4645)"><rect x="0" y="0" width="1366.84" height="892.745" fill="url(#paint11_diamond_713_4069)" opacity="1" shape-rendering="crispEdges"/><rect x="0" y="0" width="1366.84" height="892.745" transform="scale(1 -1)" fill="url(#paint11_diamond_713_4069)" opacity="1" shape-rendering="crispEdges"/><rect x="0" y="0" width="1366.84" height="892.745" transform="scale(-1 1)" fill="url(#paint11_diamond_713_4069)" opacity="1" shape-rendering="crispEdges"/><rect x="0" y="0" width="1366.84" height="892.745" transform="scale(-1)" fill="url(#paint11_diamond_713_4069)" opacity="1" shape-rendering="crispEdges"/></g></g><rect x="44.104" y="55.1932" width="5.9109" height="17.7327" rx="2.95545" data-figma-gradient-fill="{&#34;type&#34;:&#34;GRADIENT_DIAMOND&#34;,&#34;stops&#34;:[{&#34;color&#34;:{&#34;r&#34;:0.59434348344802856,&#34;g&#34;:0.51001608371734619,&#34;b&#34;:0.96998387575149536,&#34;a&#34;:1.0},&#34;position&#34;:0.0},{&#34;color&#34;:{&#34;r&#34;:0.26274511218070984,&#34;g&#34;:0.094117648899555206,&#34;b&#34;:1.0,&#34;a&#34;:1.0},&#34;position&#34;:1.0}],&#34;stopsVar&#34;:[{&#34;color&#34;:{&#34;r&#34;:0.59434348344802856,&#34;g&#34;:0.51001608371734619,&#34;b&#34;:0.96998387575149536,&#34;a&#34;:1.0},&#34;position&#34;:0.0},{&#34;color&#34;:{&#34;r&#34;:0.26274511218070984,&#34;g&#34;:0.094117648899555206,&#34;b&#34;:1.0,&#34;a&#34;:1.0},&#34;position&#34;:1.0}],&#34;transform&#34;:{&#34;m00&#34;:11.495192527770996,&#34;m01&#34;:-12.831661224365234,&#34;m02&#34;:43.971805572509766,&#34;m10&#34;:38.464836120605469,&#34;m11&#34;:34.517208099365234,&#34;m12&#34;:17.973474502563477},&#34;opacity&#34;:1.0,&#34;blendMode&#34;:&#34;NORMAL&#34;,&#34;visible&#34;:true}"/>
<defs>
<clipPath id="paint7_diamond_713_4069_clip_path"><rect x="61.8105" y="37.0001" width="5.91243" height="49.1595" rx="2.95621"/></clipPath><clipPath id="paint8_diamond_713_4069_clip_path"><rect x="52.9702" y="46.3269" width="5.9109" height="32.5099" rx="2.95545"/></clipPath><clipPath id="paint9_diamond_713_4069_clip_path"><rect x="71.0444" y="56.9296" width="5.9109" height="11.8218" rx="2.95545"/></clipPath><clipPath id="paint10_diamond_713_4069_clip_path"><rect x="34.1147" y="67.2341" width="4.58379" height="11.8218" rx="2.2919" transform="rotate(-91.9937 34.1147 67.2341)"/></clipPath><clipPath id="paint11_diamond_713_4069_clip_path"><rect x="44.104" y="55.1932" width="5.9109" height="17.7327" rx="2.95545"/></clipPath><radialGradient id="paint0_radial_713_4069" cx="0" cy="0" r="1" gradientTransform="matrix(58.3424 138.825 -65.1255 124.578 228.875 -5.26027)" gradientUnits="userSpaceOnUse">
<stop offset="0.259615" stop-color="#5A3AE7"/>
<stop offset="0.706731" stop-color="#1C0A6B"/>
</radialGradient>
<radialGradient id="paint1_radial_713_4069" cx="0" cy="0" r="1" gradientTransform="matrix(61.2595 138.825 -68.3817 124.578 284.469 -5.26027)" gradientUnits="userSpaceOnUse">
<stop offset="0.259615" stop-color="#5A3AE7"/>
<stop offset="0.706731" stop-color="#1C0A6B"/>
</radialGradient>
<radialGradient id="paint2_radial_713_4069" cx="0" cy="0" r="1" gradientTransform="matrix(70.0109 138.825 -78.1506 124.578 344.25 -5.26027)" gradientUnits="userSpaceOnUse">
<stop offset="0.259615" stop-color="#5A3AE7"/>
<stop offset="0.706731" stop-color="#1C0A6B"/>
</radialGradient>
<radialGradient id="paint3_radial_713_4069" cx="0" cy="0" r="1" gradientTransform="matrix(57.37 138.825 -64.04 124.578 414.01 -5.26027)" gradientUnits="userSpaceOnUse">
<stop offset="0.259615" stop-color="#5A3AE7"/>
<stop offset="0.706731" stop-color="#1C0A6B"/>
</radialGradient>
<radialGradient id="paint4_radial_713_4069" cx="0" cy="0" r="1" gradientTransform="matrix(69.0385 138.825 -77.0651 124.578 471.385 -5.26027)" gradientUnits="userSpaceOnUse">
<stop offset="0.259615" stop-color="#5A3AE7"/>
<stop offset="0.706731" stop-color="#1C0A6B"/>
</radialGradient>
<radialGradient id="paint5_radial_713_4069" cx="0" cy="0" r="1" gradientTransform="matrix(60.2871 138.825 -67.2963 124.578 539.604 -5.26027)" gradientUnits="userSpaceOnUse">
<stop offset="0.259615" stop-color="#5A3AE7"/>
<stop offset="0.706731" stop-color="#1C0A6B"/>
</radialGradient>
<radialGradient id="paint6_radial_713_4069" cx="0" cy="0" r="1" gradientTransform="matrix(68.0661 138.826 -75.9797 124.578 597.521 -5.26028)" gradientUnits="userSpaceOnUse">
<stop offset="0.259615" stop-color="#5A3AE7"/>
<stop offset="0.706731" stop-color="#1C0A6B"/>
</radialGradient>
<linearGradient id="paint7_diamond_713_4069" x1="0" y1="0" x2="500" y2="500" gradientUnits="userSpaceOnUse">
<stop stop-color="#9882F7"/>
<stop offset="1" stop-color="#4318FF"/>
</linearGradient>
<linearGradient id="paint8_diamond_713_4069" x1="0" y1="0" x2="500" y2="500" gradientUnits="userSpaceOnUse">
<stop stop-color="#9882F7"/>
<stop offset="1" stop-color="#4318FF"/>
</linearGradient>
<linearGradient id="paint9_diamond_713_4069" x1="0" y1="0" x2="500" y2="500" gradientUnits="userSpaceOnUse">
<stop stop-color="#9882F7"/>
<stop offset="1" stop-color="#4318FF"/>
</linearGradient>
<linearGradient id="paint10_diamond_713_4069" x1="0" y1="0" x2="500" y2="500" gradientUnits="userSpaceOnUse">
<stop stop-color="#9882F7"/>
<stop offset="1" stop-color="#4318FF"/>
</linearGradient>
<linearGradient id="paint11_diamond_713_4069" x1="0" y1="0" x2="500" y2="500" gradientUnits="userSpaceOnUse">
<stop stop-color="#9882F7"/>
<stop offset="1" stop-color="#4318FF"/>
</linearGradient>
</defs>
</svg>
